<?xml version="1.0" encoding="UTF-8"?>
<svg
    xmlns="http://www.w3.org/2000/svg"
    width="200"
    height="200"
    viewBox="0 0 200 200"
>

    <defs>
        <style>
            @keyframes fadein {
                from { opacity: 0; }
                to   { opacity: 1; }
            }
        </style>
    </defs>

    <!-- background (just so you can see contrast) -->
    <rect width="100%" height="100%" fill="#0d1117"/>

    <!-- Fire icon -->
    <g
        transform="translate(100, 60)"
        style="opacity: 0; animation: fadein 0.6s ease forwards"
    >
        <!-- bounding box (invisible, for alignment sanity) -->
        <path d="M -12 -0.5 L 15 -0.5 L 15 23.5 L -12 23.5 Z" fill="none"/>

        <!-- fire shape -->
        <path
            d="
            M 1.5 0.67
            C 1.5 0.67 2.24 3.32 2.24 5.47
            C 2.24 7.53 0.89 9.2 -1.17 9.2
            C -3.23 9.2 -4.79 7.53 -4.79 5.47
            L -4.76 5.11
            C -6.78 7.51 -8 10.62 -8 13.99
            C -8 18.41 -4.42 22 0 22
            C 4.42 22 8 18.41 8 13.99
            C 8 8.6 5.41 3.79 1.5 0.67
            Z
            M -0.29 19
            C -2.07 19 -3.51 17.6 -3.51 15.86
            C -3.51 14.24 -2.46 13.1 -0.7 12.74
            C 1.07 12.38 2.9 11.53 3.92 10.16
            C 4.31 11.45 4.51 12.81 4.51 14.2
            C 4.51 16.85 2.36 19 -0.29 19
            Z
            "
            fill="#ff8c00"
        />
    </g>

</svg>
