<?xml version="1.0" encoding="UTF-8"?>
<svg width="700" height="300" xmlns="http://www.w3.org/2000/svg">
    <defs>
        <clipPath id="rounded-bar-2027388816256"><rect x="0" y="0" width="410" height="8" rx="4"/></clipPath>
        <style>
                    .invisible { opacity: 0; }         .blue { fill: #58a6ff; }         .text { font-family: 'Segoe UI', Ubuntu, Sans-Serif; font-weight: 600; fill: #ffffff; }         .header { font-size: 28px; font-weight: bold; }         .big-title { font-size: 24px; font-weight: bold; }         .title { font-size: 22px; }         .section-title { font-size: 18px; }         .block-title { font-size: 16px; }         .subsection-title { font-size: 13px; fill: #7d8590; letter-spacing: 0.5px; }
        .stat-label { font-size: 14px; font-weight: 400; opacity: 0.9; }         .stat-value { font-size: 18px; }         .lang-text { font-size: 12px; font-weight: 400; }         .streak-number { font-size: 48px; font-weight: 700; }         .streak-label { font-size: 14px; }         .streak-date { font-size: 11px; font-weight: 400; opacity: 0.8; }         .repo-name { font-size: 13px; }
            .header {{ font-family: 'Segoe UI', Ubuntu, Sans-Serif; font-weight: bold; font-size: 28px; fill: #ffffff; }}
            .section-title {{ font-family: 'Segoe UI', Ubuntu, Sans-Serif; font-weight: 600; font-size: 18px; fill: #58a6ff; }}
        </style>
    </defs>
    
    <!-- Background -->
    <rect width="100%" height="100%" fill="#0d1117" rx="15"/>
    
    <!-- Header -->
    <text x="20" y="40" class="text header">AlvarodOrs' — GitHub Overview</text>
    
    <!-- Left Column: Activity Summary -->
    <g transform="translate(20, 80)">
        <text x="0" y="0" class="text section-title">Activity Summary</text>
        
        <g transform="translate(0, 35)">
            <text x="60" y="0" class="text stat-label">Contributions</text>
            <text x="0" y="0" class="text stat-value">311</text>
        </g>
        
        <g transform="translate(0, 65)">
            <text x="60" y="0" class="text stat-label">Commits</text>
            <text x="0" y="0" class="text stat-value">209</text>
        </g>
        
        <g transform="translate(0, 95)">
            <text x="60" y="0" class="text stat-label">Stars</text>
            <text x="0" y="0" class="text stat-value">12</text>
        </g>
        
        <g transform="translate(0, 125)">
            <text x="0" y="60" font-weight="700" font-family="'Segoe UI', Ubuntu, Sans-Serif" font-size="20" fill="#ffffff">Active since Dec 02, 2020</text>
        </g>
    </g>
    
    <!-- Right Column: Languages -->
    <g transform="translate(300, 80)">
        <text x="0" y="0" class="text section-title">Languages</text>
        
        <g transform="translate(0, 35)">
            <g clip-path="url(#rounded-bar-2027388816256)"><rect x="0.0" y="0" width="49.33866157824491%" height="8" fill="#ffd700"/><rect x="202.28851247080414" y="0" width="16.598890557223893%" height="8" fill="#2b7489"/><rect x="270.3439637554221" y="0" width="13.06593051384718%" height="8" fill="#555555"/><rect x="323.91427886219554" y="0" width="12.917865782449114%" height="8" fill="#b07219"/><rect x="376.8775285702369" y="0" width="5.501595345345345%" height="8" fill="#198CE7"/><rect x="399.4340694861528" y="0" width="2.5770562228895564%" height="8" fill="#83056a"/></g>
        </g>
        
        <g transform="translate(0, 60)">
            <g transform="translate(0.0, 0.0)"><circle cx="5" cy="-3" r="5" fill="#ffd700"/><text x="15" y="0" class="text lang-text">Python 49.34%</text></g><g transform="translate(136.66666666666666, 0.0)"><circle cx="5" cy="-3" r="5" fill="#2b7489"/><text x="15" y="0" class="text lang-text">TypeScript 16.60%</text></g><g transform="translate(273.3333333333333, 0.0)"><circle cx="5" cy="-3" r="5" fill="#555555"/><text x="15" y="0" class="text lang-text">C 13.07%</text></g><g transform="translate(0, 25.0)"><circle cx="5" cy="-3" r="5" fill="#b07219"/><text x="15" y="0" class="text lang-text">Java 12.92%</text></g><g transform="translate(136.66666666666666, 25.0)"><circle cx="5" cy="-3" r="5" fill="#198CE7"/><text x="15" y="0" class="text lang-text">R 5.50%</text></g><g transform="translate(273.3333333333333, 25.0)"><circle cx="5" cy="-3" r="5" fill="#83056a"/><text x="15" y="0" class="text lang-text">Others 2.58%</text></g>
        </g>
    </g>
</svg>