<?xml version="1.0" encoding="UTF-8"?>
<svg width="550" height="380" xmlns="http://www.w3.org/2000/svg">
    <defs>
        <style>
            <!-- neutral Styles -->
            .header {{ font-family: 'Segoe UI', Ubuntu, Sans-Serif; font-weight: bold; font-size: 28px; fill: #ffffff; }} 
            .section-title {{ font-family: 'Segoe UI', Ubuntu, Sans-Serif; font-weight: 600; font-size: 18px; fill: #58a6ff; }}
            .subsection-title {{ font-family: 'Segoe UI', Ubuntu, Sans-Serif; font-weight: 600; font-size: 13px; fill: #7d8590; letter-spacing: 0.5px; }}
        </style>
    </defs>
    
    <!-- Background -->
    <rect width="550" height="380" fill="#0d1117" rx="15"/>
    
    <!-- Header -->
    <text x="20" y="40" class="header">Álvaro d'Ors Nestares' — GitHub Stats</text>
    
    <!-- Left Column: Core Activity -->
    <g transform="translate(20, 80)">
        <text x="0" y="0" class="section-title">Core Activity</text>
        
        <g transform="translate(0, 35)">
            <text x="60" y="0" class="stat-label">Total Contributions</text>
            <text x="0" y="0" class="stat-value">297</text>
        </g>
        
        <g transform="translate(0, 65)">
            <text x="60" y="0" class="stat-label">Commits</text>
            <text x="0" y="0" class="stat-value">195</text>
        </g>
        
        <g transform="translate(0, 95)">
            <text x="60" y="0" class="stat-label">Stars Earned</text>
            <text x="0" y="0" class="stat-value">12</text>
        </g>
        
        <g transform="translate(0, 135)">
            <text x="0" y="0" class="stat-label">PRs: 1   Issues: 3</text>
        </g>
    </g>                    
    <!-- Sub Info -->
    <g transform="translate(360, 80)">
        <text x="0" y="0" class="section-title">Contribution Patterns</text>
        <g transform="translate(0, 35)">
            <text x="0" y="0" class="stat-label">Longest Streak: 19 days</text>
        </g>
        
        <g transform="translate(0, 65)">
            <text x="0" y="0" class="stat-label">Active since {created_formatted}</text>
        </g>
    </g>
    
    
    <!-- Right Column: Technical Focus -->
    <g transform="translate(20, 250)">
        <text x="0" y="0" class="section-title">Most Used Languages</text>
        
        <!-- Languages -->
        <g transform="translate(0, 15)">            
            <g transform="translate(0, 15)">
                <rect x="0" y="0" width="44.09719026141384%" height="8" fill="#ffd700"/>
<rect x="194.0276371502209" y="0" width="18.316227908689246%" height="8" fill="#2b7489"/>
<rect x="274.6190399484536" y="0" width="14.417744385125184%" height="8" fill="#555555"/>
<rect x="338.0571152430044" y="0" width="14.25436073269514%" height="8" fill="#b07219"/>
<rect x="400.776302466863" y="0" width="6.070795747422681%" height="8" fill="#198CE7"/>
<rect x="427.4878037555228" y="0" width="2.8436809646539114%" height="8" fill="#198CE7"/>
            </g>
            
            <g transform="translate(0, 45)">
                <g transform="translate(0, 0)">                             <circle cx="5" cy="-3" r="5" fill="#ffd700"/>                             <text x="15" y="0" class="text lang-text">Python 44.10%</text>                         </g>
<g transform="translate(146.66666666666666, 0)">                             <circle cx="5" cy="-3" r="5" fill="#2b7489"/>                             <text x="15" y="0" class="text lang-text">TypeScript 18.32%</text>                         </g>
<g transform="translate(293.3333333333333, 0)">                             <circle cx="5" cy="-3" r="5" fill="#555555"/>                             <text x="15" y="0" class="text lang-text">C 14.42%</text>                         </g>
<g transform="translate(0, 25)">                             <circle cx="5" cy="-3" r="5" fill="#b07219"/>                             <text x="15" y="0" class="text lang-text">Java 14.25%</text>                         </g>
<g transform="translate(146.66666666666666, 25)">                             <circle cx="5" cy="-3" r="5" fill="#198CE7"/>                             <text x="15" y="0" class="text lang-text">R 6.07%</text>                         </g>
<g transform="translate(293.3333333333333, 25)">                         <circle cx="5" cy="-3" r="5" fill="#198CE7"/>                         <text x="15" y="0" class="text lang-text">Others 2.84%</text>                     </g>
            </g>
        </g>
    </g>
</svg>