<?xml version="1.0" encoding="UTF-8"?>
<svg width="700" height="300" xmlns="http://www.w3.org/2000/svg">
    <defs>
        <style>
            <!-- professional Styles -->
            .header {{ font-family: 'Segoe UI', Ubuntu, Sans-Serif; font-weight: bold; font-size: 28px; fill: #ffffff; }}
            .section-title {{ font-family: 'Segoe UI', Ubuntu, Sans-Serif; font-weight: 600; font-size: 18px; fill: #58a6ff; }}
        </style>
    </defs>
    
    <!-- Background -->
    <rect width="700" height="300" fill="#0d1117" rx="15"/>
    
    <!-- Header -->
    <text x="20" y="40" class="header">Álvaro d'Ors Nestares' — GitHub Overview</text>
    
    <!-- Left Column: Activity Summary -->
    <g transform="translate(20, 80)">
        <text x="0" y="0" class="section-title">Activity Summary</text>
        
        <g transform="translate(0, 35)">
            <text x="60" y="0" class="stat-label">Contributions</text>
            <text x="0" y="0" class="stat-value">298</text>
        </g>
        
        <g transform="translate(0, 65)">
            <text x="60" y="0" class="stat-label">Commits</text>
            <text x="0" y="0" class="stat-value">196</text>
        </g>
        
        <g transform="translate(0, 95)">
            <text x="60" y="0" class="stat-label">Stars</text>
            <text x="0" y="0" class="stat-value">12</text>
        </g>
        
        <g transform="translate(0, 125)">
            <text x="0" y="60" font-weight="700" font-family="'Segoe UI', Ubuntu, Sans-Serif" font-size="20" fill="#ffffff">Active since {created_formatted}</text>
        </g>
    </g>
    
    <!-- Right Column: Languages -->
    <g transform="translate(300, 80)">
        <text x="0" y="0" class="section-title">Languages</text>
        
        <g transform="translate(0, 35)">
            <rect x="0" y="0" width="44.09719026141384%" height="8" fill="#ffd700"/>
<rect x="194.0276371502209" y="0" width="18.316227908689246%" height="8" fill="#2b7489"/>
<rect x="274.6190399484536" y="0" width="14.417744385125184%" height="8" fill="#555555"/>
<rect x="338.0571152430044" y="0" width="14.25436073269514%" height="8" fill="#b07219"/>
<rect x="400.776302466863" y="0" width="6.070795747422681%" height="8" fill="#198CE7"/>
<rect x="427.4878037555228" y="0" width="2.8436809646539114%" height="8" fill="#198CE7"/>
        </g>
        
        <g transform="translate(0, 60)">
            <g transform="translate(0, 0)">                             <circle cx="5" cy="-3" r="5" fill="#ffd700"/>                             <text x="15" y="0" class="text lang-text">Python 44.10%</text>                         </g>
<g transform="translate(146.66666666666666, 0)">                             <circle cx="5" cy="-3" r="5" fill="#2b7489"/>                             <text x="15" y="0" class="text lang-text">TypeScript 18.32%</text>                         </g>
<g transform="translate(293.3333333333333, 0)">                             <circle cx="5" cy="-3" r="5" fill="#555555"/>                             <text x="15" y="0" class="text lang-text">C 14.42%</text>                         </g>
<g transform="translate(0, 25)">                             <circle cx="5" cy="-3" r="5" fill="#b07219"/>                             <text x="15" y="0" class="text lang-text">Java 14.25%</text>                         </g>
<g transform="translate(146.66666666666666, 25)">                             <circle cx="5" cy="-3" r="5" fill="#198CE7"/>                             <text x="15" y="0" class="text lang-text">R 6.07%</text>                         </g>
<g transform="translate(293.3333333333333, 25)">                         <circle cx="5" cy="-3" r="5" fill="#198CE7"/>                         <text x="15" y="0" class="text lang-text">Others 2.84%</text>                     </g>
        </g>
    </g>
</svg>