<?xml version="1.0" encoding="UTF-8"?>
<svg width="900" height="550" xmlns="http://www.w3.org/2000/svg">
    <defs>
        <style>
            
    .title { font: 600 22px 'Segoe UI', Ubuntu, Sans-Serif; fill: #ffffff; }
    .stat-label { font: 400 14px 'Segoe UI', Ubuntu, Sans-Serif; fill: #ffffff; opacity: 0.9; }
    .stat-value { font: 600 18px 'Segoe UI', Ubuntu, Sans-Serif; fill: #ffffff; }
    .section-title { font: 600 18px 'Segoe UI', Ubuntu, Sans-Serif; fill: #ffffff; }
    .lang-text { font: 400 12px 'Segoe UI', Ubuntu, Sans-Serif; fill: #ffffff; }
    .streak-number { font: 700 48px 'Segoe UI', Ubuntu, Sans-Serif; fill: #ffffff; }
    .streak-label { font: 600 14px 'Segoe UI', Ubuntu, Sans-Serif; fill: #ffffff; }
    .streak-date { font: 400 11px 'Segoe UI', Ubuntu, Sans-Serif; fill: #ffffff; opacity: 0.8; }
    .repo-name { font: 600 13px 'Segoe UI', Ubuntu, Sans-Serif; fill: #ffffff; }

            .header { font-family: 'Segoe UI', Ubuntu, Sans-Serif; font-weight: bold; font-size: 28px; fill: #ffffff; }
            .block-title { font-family: 'Segoe UI', Ubuntu, Sans-Serif; font-weight: 600; font-size: 16px; fill: #58a6ff; }
        </style>
    </defs>
    
    <!-- Background -->
    <rect width="900" height="550" fill="#0d1117" rx="15"/>
    
    <!-- Header -->
    <text x="20" y="40" class="header">Álvaro d'Ors Nestares' — GitHub Activity</text>
    
    <!-- Block 1: Activity Metrics -->
    <g transform="translate(20, 70)">
        <rect x="0" y="0" width="420" height="210" fill="rgba(255,255,255,0.05)" rx="10"/>
        <text x="20" y="30" class="block-title">Activity Metrics</text>
        
        <g transform="translate(20, 55)">
            <text x="0" y="0" class="stat-label">Contributions</text>
            <text x="220" y="0" class="stat-value">148</text>
            
            <text x="0" y="30" class="stat-label">Commits</text>
            <text x="220" y="30" class="stat-value">51</text>
            
            <text x="0" y="60" class="stat-label">Stars</text>
            <text x="220" y="60" class="stat-value">12</text>
            
            <text x="0" y="90" class="stat-label">PRs</text>
            <text x="220" y="90" class="stat-value">1</text>
            
            <text x="0" y="120" class="stat-label">Issues</text>
            <text x="220" y="120" class="stat-value">2</text>
            
            <text x="0" y="150" class="stat-label">Contributed to (last year)</text>
            <text x="220" y="150" class="stat-value">10</text>
        </g>
    </g>
    
    <!-- Block 2: Streaks -->
    <g transform="translate(460, 70)">
        <rect x="0" y="0" width="420" height="210" fill="rgba(255,255,255,0.05)" rx="10"/>
        <text x="20" y="30" class="block-title">Streaks</text>
        
        <g transform="translate(20, 55)">
            <text x="0" y="0" class="stat-label">Longest Streak</text>
            <text x="200" y="0" class="stat-value">5 days</text>
            
            <text x="0" y="30" class="stat-label">Period</text>
            <text x="200" y="30" class="stat-value">Dec 16, 2024 — Dec 20, 2024</text>
            
            <text x="0" y="60" class="stat-label">Active since</text>
            <text x="200" y="60" class="stat-value">Dec 02, 2020</text>
        </g>
    </g>
    
    <!-- Block 3: Top Repositories -->
    <g transform="translate(20, 300)">
        <rect x="0" y="0" width="420" height="230" fill="rgba(255,255,255,0.05)" rx="10"/>
        <text x="20" y="30" class="block-title">Top Repositories</text>
        
        <g transform="translate(20, 55)">
            
        <g transform="translate(30, 55)">
            <text x="0" y="0" font-size="18" fill="#ffd700">★</text>
            <text x="25" y="0" class="repo-name">
                <a href="https://github.com/AlvarodOrs/TestSolver" target="_blank">
                    <tspan fill="#ffffff" text-decoration="none" style="cursor:pointer">
                    TestSolver
                    </tspan>
                </a>
            </text>
            <text x="380" y="0" class="lang-text">569 views</text>
        </g>
        
        <g transform="translate(30, 83)">
            <text x="0" y="0" font-size="18" fill="#ffffff">▪</text>
            <text x="25" y="0" class="repo-name">
                <a href="https://github.com/AlvarodOrs/AlvarodOrs" target="_blank">
                    <tspan fill="#ffffff" text-decoration="none" style="cursor:pointer">
                    AlvarodOrs
                    </tspan>
                </a>
            </text>
            <text x="380" y="0" class="lang-text">345 views</text>
        </g>
        
        </g>
    </g>
    
    <!-- Block 4: Languages -->
    <g transform="translate(460, 300)">
        <rect x="0" y="0" width="420" height="230" fill="rgba(255,255,255,0.05)" rx="10"/>
        <text x="20" y="30" class="block-title">Languages</text>
        
        <g transform="translate(20, 55)">
            <defs>
    <clipPath id="rounded-bar-2942335338624">
      <rect x="0" y="0" width="440" height="8" rx="4"/>
    </clipPath>
  </defs>
  <g clip-path="url(#rounded-bar-2942335338624)"><rect x="0" y="0" width="221.71045576407508" height="8" fill="#ffd700"/><rect x="221.71045576407508" y="0" width="120.61662198391419" height="8" fill="#2b7489"/><rect x="342.3270777479893" y="0" width="94.95978552278821" height="8" fill="#555555"/><rect x="437.2868632707775" y="0" width="1.5335120643431632" height="8" fill="#563d7c"/><rect x="438.8203753351206" y="0" width="0.9436997319034851" height="8" fill="#f1e05a"/><rect x="439.7640750670241" y="0" width="0.23592493297587128" height="8" fill="#DA3434"/></g>
        </g>
        
        <g transform="translate(20, 80)">
            
        <g transform="translate(0, 0)">
            <circle cx="5" cy="-3" r="5" fill="#ffd700"/>
            <text x="15" y="0" class="lang-text">Python 37.59%</text>
        </g>
        
        <g transform="translate(146.66666666666666, 0)">
            <circle cx="5" cy="-3" r="5" fill="#2b7489"/>
            <text x="15" y="0" class="lang-text">TypeScript 20.45%</text>
        </g>
        
        <g transform="translate(293.3333333333333, 0)">
            <circle cx="5" cy="-3" r="5" fill="#555555"/>
            <text x="15" y="0" class="lang-text">C 16.10%</text>
        </g>
        
        <g transform="translate(0, 25)">
            <circle cx="5" cy="-3" r="5" fill="#563d7c"/>
            <text x="15" y="0" class="lang-text">CSS 0.26%</text>
        </g>
        
        <g transform="translate(146.66666666666666, 25)">
            <circle cx="5" cy="-3" r="5" fill="#f1e05a"/>
            <text x="15" y="0" class="lang-text">JavaScript 0.16%</text>
        </g>
        
        <g transform="translate(293.3333333333333, 25)">
            <circle cx="5" cy="-3" r="5" fill="#DA3434"/>
            <text x="15" y="0" class="lang-text">CMake 0.04%</text>
        </g>
        
        </g>
    </g>
</svg>