<?xml version="1.0" encoding="UTF-8"?>
<svg width="500" height="800" xmlns="http://www.w3.org/2000/svg">
    <defs>
        <linearGradient id="bg-gradient" x1="0%" y1="0%" x2="100%" y2="100%">
            <stop offset="0%" style="stop-color:#3572A5;stop-opacity:0.85" /><stop offset="31.99%" style="stop-color:#3572A5;stop-opacity:0.85" /><stop offset="31.99%" style="stop-color:#2b7489;stop-opacity:0.85" /><stop offset="54.269999999999996%" style="stop-color:#2b7489;stop-opacity:0.85" /><stop offset="54.269999999999996%" style="stop-color:#555555;stop-opacity:0.85" /><stop offset="71.81%" style="stop-color:#555555;stop-opacity:0.85" /><stop offset="71.81%" style="stop-color:#563d7c;stop-opacity:0.85" /><stop offset="72.09%" style="stop-color:#563d7c;stop-opacity:0.85" /><stop offset="72.09%" style="stop-color:#f1e05a;stop-opacity:0.85" /><stop offset="72.27000000000001%" style="stop-color:#f1e05a;stop-opacity:0.85" /><stop offset="72.27000000000001%" style="stop-color:#DA3434;stop-opacity:0.85" /><stop offset="100%" style="stop-color:#DA3434;stop-opacity:0.85" />
        </linearGradient>
        <style>
            .title { font: 600 22px 'Segoe UI', Ubuntu, Sans-Serif; fill: #ffffff; }
            .stat-label { font: 400 14px 'Segoe UI', Ubuntu, Sans-Serif; fill: #ffffff; opacity: 0.9; }
            .stat-value { font: 600 18px 'Segoe UI', Ubuntu, Sans-Serif; fill: #ffffff; }
            .section-title { font: 600 18px 'Segoe UI', Ubuntu, Sans-Serif; fill: #ffffff; }
            .lang-text { font: 400 12px 'Segoe UI', Ubuntu, Sans-Serif; fill: #ffffff; }
            .streak-number { font: 700 48px 'Segoe UI', Ubuntu, Sans-Serif; fill: #ffffff; }
            .streak-label { font: 600 14px 'Segoe UI', Ubuntu, Sans-Serif; fill: #ffffff; }
            .streak-date { font: 400 11px 'Segoe UI', Ubuntu, Sans-Serif; fill: #ffffff; opacity: 0.8; }
            .repo-name { font: 600 13px 'Segoe UI', Ubuntu, Sans-Serif; fill: #ffffff; }
        </style>
    </defs>
    
    <!-- Background -->
    <rect width="500" height="800" fill="url(#bg-gradient)" rx="15"/>
    
    <!-- Main Stats Card -->
    <g transform="translate(0, 20)">
        <!-- Title with Avatar -->
        <text x="140" y="35" class="title">Álvaro d'Ors Nestares' GitHub Stats</text>
        
        <!-- Avatar Circle -->
        <circle cx="420" cy="70" r="35" fill="rgba(255,255,255,0.2)" stroke="#ffffff" stroke-width="3"/>
        <text x="420" y="80" text-anchor="middle" font-size="32" font-weight="600" fill="#ffffff">Á</text>
        
        <!-- Stats Grid -->
        <g transform="translate(30, 80)">
            <!-- Total Stars -->
            <text x="0" y="0" class="stat-label">Total Stars Earned:</text>
            <text x="250" y="0" class="stat-value">10</text>
            
            <!-- Total Commits -->
            <text x="0" y="30" class="stat-label">Total Commits:</text>
            <text x="250" y="30" class="stat-value">39</text>
            
            <!-- Total PRs -->
            <text x="0" y="60" class="stat-label">Total PRs:</text>
            <text x="250" y="60" class="stat-value">1</text>
            
            <!-- Total Issues -->
            <text x="0" y="90" class="stat-label">Total Issues:</text>
            <text x="250" y="90" class="stat-value">2</text>
            
            <!-- Contributed to -->
            <text x="0" y="120" class="stat-label">Contributed to (last year):</text>
            <text x="250" y="120" class="stat-value">10</text>
        </g>
    </g>
    
    <!-- Streak Stats Card -->
    <g transform="translate(0, 240)">
        <rect x="15" y="0" width="470" height="140" fill="rgba(255,255,255,0.1)" rx="10"/>
        
        <!-- Total Contributions -->
        <g transform="translate(40, 40)">
            <text x="25" y="25" text-anchor="middle" class="streak-number">138</text>
            <text x="25" y="45" text-anchor="middle" class="streak-label">Total Contributions</text>
            <text x="25" y="62" text-anchor="middle" class="streak-date">2020-12-02 - Present</text>
        </g>
        
        <!-- Divider -->
        <line x1="150" y1="30" x2="150" y2="110" stroke="rgba(255,255,255,0.3)" stroke-width="2"/>
        
        <!-- Current Streak -->
        <g transform="translate(195, 40)">
            <!-- Flame Icon -->
            <path d="M30 10 C 30 10, 35 0, 35 0 C 35 0, 40 10, 40 10 C 42 15, 43 20, 41 25 C 39 30, 35 33, 30 33 C 25 33, 21 30, 19 25 C 17 20, 18 15, 20 10 Z" fill="#ffffff" opacity="0.8"/>
            <text x="35" y="22" text-anchor="middle" font-size="20" font-weight="700" fill="#8b5cf6">3</text>
            
            <text x="35" y="45" text-anchor="middle" class="streak-label">Current Streak</text>
            <text x="35" y="62" text-anchor="middle" class="streak-date">Dec 11, 2025 - Dec 13, 2025</text>
        </g>
        
        <!-- Divider -->
        <line x1="340" y1="30" x2="340" y2="110" stroke="rgba(255,255,255,0.3)" stroke-width="2"/>
        
        <!-- Longest Streak -->
        <g transform="translate(365, 40)">
            <text x="40" y="25" text-anchor="middle" class="streak-number">5</text>
            <text x="40" y="45" text-anchor="middle" class="streak-label">Longest Streak</text>
            <text x="40" y="62" text-anchor="middle" class="streak-date">Dec 16, 2024 - Dec 20, 2024</text>
        </g>
    </g>
    
    <!-- Languages Card -->
    <g transform="translate(0, 400)">
        <rect x="15" y="0" width="470" height="180" fill="rgba(255,255,255,0.1)" rx="10"/>
        
        <text x="30" y="35" class="section-title">Most Used Languages</text>
        
        <!-- Language Bar -->
        <g transform="translate(30, 55)">
            <rect x="0" y="0" width="140.75599999999997" height="8" rx="4" fill="#3572A5"/><rect x="140.75599999999997" y="0" width="98.032" height="8" fill="#2b7489"/><rect x="238.78799999999995" y="0" width="77.176" height="8" fill="#555555"/><rect x="315.96399999999994" y="0" width="1.2320000000000002" height="8" fill="#563d7c"/><rect x="317.19599999999997" y="0" width="0.7919999999999999" height="8" fill="#f1e05a"/><rect x="317.98799999999994" y="0" width="0.17600000000000002" height="8" fill="#858585"/>
        </g>
        
        <!-- Language Labels -->
        <g transform="translate(30, 80)">
            
        <g transform="translate(0, 0)">
            <circle cx="5" cy="-3" r="5" fill="#3572A5"/>
            <text x="15" y="0" class="lang-text">Python 31.99%</text>
        </g>
        
        <g transform="translate(150, 0)">
            <circle cx="5" cy="-3" r="5" fill="#2b7489"/>
            <text x="15" y="0" class="lang-text">TypeScript 22.28%</text>
        </g>
        
        <g transform="translate(300, 0)">
            <circle cx="5" cy="-3" r="5" fill="#555555"/>
            <text x="15" y="0" class="lang-text">C 17.54%</text>
        </g>
        
        <g transform="translate(0, 25)">
            <circle cx="5" cy="-3" r="5" fill="#563d7c"/>
            <text x="15" y="0" class="lang-text">CSS 0.28%</text>
        </g>
        
        <g transform="translate(150, 25)">
            <circle cx="5" cy="-3" r="5" fill="#f1e05a"/>
            <text x="15" y="0" class="lang-text">JavaScript 0.18%</text>
        </g>
        
        <g transform="translate(300, 25)">
            <circle cx="5" cy="-3" r="5" fill="#858585"/>
            <text x="15" y="0" class="lang-text">CMake 0.04%</text>
        </g>
        
        </g>
    </g>
    
    <!-- Top Repositories Card -->
    <g transform="translate(0, 600)">
        <rect x="15" y="0" width="470" height="180" fill="rgba(255,255,255,0.1)" rx="10"/>
        
        <text x="30" y="35" class="section-title">Top Repositories by Views</text>
        
        
        <g transform="translate(30, 55)">
            <text x="0" y="0" font-size="16" fill="#ffd700">★</text>
            <text x="25" y="0" class="repo-name">TestSolver</text>
            <text x="380" y="0" class="lang-text">542 views</text>
        </g>
        
        <g transform="translate(30, 83)">
            <text x="0" y="0" font-size="16" fill="#ffffff">▪</text>
            <text x="25" y="0" class="repo-name">AlvarodOrs</text>
            <text x="380" y="0" class="lang-text">39 views</text>
        </g>
        
        <g transform="translate(30, 111)">
            <text x="0" y="0" font-size="16" fill="#ffffff">▪</text>
            <text x="25" y="0" class="repo-name">Destiny</text>
            <text x="380" y="0" class="lang-text">1 views</text>
        </g>
        
        <g transform="translate(30, 139)">
            <text x="0" y="0" font-size="16" fill="#ffffff">▪</text>
            <text x="25" y="0" class="repo-name">Gideon</text>
            <text x="380" y="0" class="lang-text">1 views</text>
        </g>
        
    </g>
</svg>